<svg width="79" height="25" viewBox="0 0 79 25" fill="none" xmlns="http://www.w3.org/2000/svg">
    <path d="M64.9043 15.0279C64.6692 14.9026 64.3963 14.8691 64.138 14.9337C63.8797 14.9983 63.6545 15.1565 63.5053 15.3779C63.2014 15.8511 62.8389 16.2837 62.4266 16.6654C61.9361 17.0807 61.3758 17.4046 60.772 17.622C60.1293 17.8638 59.4485 17.9875 58.7622 17.9871C58.0957 17.9997 57.4338 17.8721 56.8193 17.6124C56.2048 17.3528 55.6512 16.9669 55.1941 16.4795C54.2556 15.4785 53.723 14.1618 53.7005 12.787H64.6039C64.8256 12.7869 65.0445 12.7376 65.2449 12.6426C65.4454 12.5476 65.6225 12.4093 65.7634 12.2375C65.9044 12.0657 66.0058 11.8648 66.0604 11.649C66.115 11.4333 66.1215 11.2081 66.0793 10.9896C65.8674 9.79415 65.3891 8.66231 64.6802 7.6787C64.003 6.77077 63.1165 6.04146 62.0969 5.55333C61.0772 5.0652 59.9549 4.83285 58.8261 4.87622C57.7263 4.83667 56.6332 5.06506 55.6404 5.54191C54.6475 6.01876 53.7844 6.72989 53.1247 7.61454C51.9905 9.06563 51.3991 10.8704 51.4537 12.7143C51.5082 14.5582 52.2053 16.3245 53.4234 17.7054C54.1077 18.4794 54.9563 19.0893 55.9066 19.4901C56.8569 19.8909 57.8846 20.0724 58.9141 20.0212C59.8809 20.0353 60.8423 19.8727 61.7511 19.5412C62.5885 19.2211 63.3581 18.7453 64.0198 18.1387C64.5214 17.6713 64.9559 17.1362 65.3109 16.5487C65.3886 16.4235 65.4397 16.2835 65.461 16.1375C65.4823 15.9915 65.4733 15.8427 65.4345 15.7004C65.3962 15.5576 65.3292 15.4242 65.2375 15.3083C65.1459 15.1925 65.0317 15.0968 64.9018 15.0271L64.9043 15.0279ZM62.8945 8.85289C63.3384 9.44628 63.6595 10.1229 63.8389 10.8429H53.9545C54.2156 9.87201 54.7283 8.9881 55.4405 8.28122C56.3714 7.4358 57.5879 6.97784 58.8427 7.00037C59.638 6.9996 60.4236 7.17486 61.1437 7.5137C61.8232 7.81831 62.4231 8.27699 62.8963 8.8537L62.8945 8.85289Z" fill="white"/>
    <path d="M28.2271 15.0306C27.992 14.9054 27.7191 14.8718 27.4609 14.9364C27.2026 15.001 26.9772 15.1593 26.8281 15.3806C26.5241 15.8538 26.1616 16.2864 25.7494 16.6681C25.2589 17.0833 24.6986 17.4073 24.0948 17.6248C23.4521 17.8666 22.7714 17.9902 22.0851 17.9898C21.4185 18.0024 20.7567 17.8747 20.1422 17.6151C19.5277 17.3555 18.9741 16.9696 18.5169 16.4823C17.5785 15.4813 17.0459 14.1645 17.0233 12.7898H27.9268C28.1484 12.7897 28.3673 12.7404 28.5677 12.6454C28.7682 12.5504 28.9453 12.412 29.0862 12.2403C29.2272 12.0685 29.3287 11.8675 29.3833 11.6518C29.4379 11.436 29.4443 11.2108 29.4021 10.9923C29.1902 9.7969 28.7119 8.66508 28.0031 7.68147C27.3259 6.77339 26.4395 6.04389 25.4199 5.55561C24.4002 5.06734 23.2778 4.83488 22.1489 4.87815C21.049 4.83869 19.9559 5.06722 18.9631 5.54422C17.9702 6.02122 17.1071 6.7325 16.4475 7.61731C15.3134 9.06849 14.7222 10.8733 14.7769 12.7172C14.8317 14.5612 15.5288 16.3274 16.747 17.7081C17.4313 18.4822 18.28 19.0921 19.2302 19.4929C20.1805 19.8937 21.2083 20.0752 22.2377 20.024C23.2046 20.0381 24.1659 19.8755 25.0748 19.544C25.9121 19.224 26.6818 18.7481 27.3434 18.1415C27.8452 17.6742 28.2797 17.1391 28.6345 16.5515C28.7123 16.4263 28.7634 16.2863 28.7847 16.1403C28.806 15.9943 28.797 15.8455 28.7582 15.7031C28.7199 15.5603 28.6528 15.4269 28.5612 15.3111C28.4696 15.1953 28.3553 15.0996 28.2255 15.0298L28.2271 15.0306ZM26.2174 8.85563C26.6613 9.44901 26.9824 10.1256 27.1617 10.8456H17.2773C17.5384 9.8748 18.0512 8.99086 18.7634 8.28396C19.6943 7.43854 20.9107 6.98061 22.1655 7.00314C22.9608 7.00239 23.7464 7.17766 24.4666 7.51647C25.146 7.82108 25.7459 8.27976 26.2191 8.85647L26.2174 8.85563Z" fill="white"/>
    <path d="M12.5037 19.0176V11.9434C12.5746 10.5424 12.3834 9.14041 11.9403 7.81005C11.5751 6.94044 10.9593 6.2004 10.172 5.68506C9.34992 5.15143 8.38833 4.87556 7.40963 4.89257C6.43268 4.88198 5.46961 5.12542 4.61407 5.59923C3.80419 6.0607 3.09079 6.67502 2.51306 7.40839V1.02256C2.51306 0.889818 2.48701 0.758367 2.43643 0.635727C2.38585 0.513087 2.31171 0.401655 2.21825 0.30779C2.12478 0.213926 2.01382 0.139473 1.89171 0.0886739C1.76959 0.0378748 1.6387 0.0117187 1.50652 0.0117188C1.23957 0.0117187 0.983547 0.118222 0.794786 0.30779C0.606025 0.497358 0.5 0.754473 0.5 1.02256V19.0267C0.5 19.2946 0.605953 19.5515 0.794558 19.7409C0.983164 19.9303 1.23895 20.0367 1.50568 20.0367C1.77241 20.0367 2.02822 19.9303 2.21683 19.7409C2.40544 19.5515 2.51139 19.2946 2.51139 19.0267V13.9359C2.47006 12.7141 2.54676 11.4912 2.74041 10.2842C2.9895 9.29688 3.54841 8.41623 4.33445 7.77257C5.09459 7.11779 6.06381 6.75931 7.06527 6.76256C7.83368 6.69539 8.59865 6.92535 9.20395 7.40547C9.80925 7.88558 10.2092 8.57963 10.3222 9.3459C10.4877 10.3695 10.5522 11.407 10.5147 12.4434V19.0267C10.5153 19.292 10.6207 19.5461 10.8078 19.7332C10.9949 19.9204 11.2484 20.0252 11.5125 20.0246C11.7766 20.0241 12.0297 19.9182 12.216 19.7303C12.4024 19.5423 12.5067 19.2878 12.5062 19.0226V19.0159L12.5037 19.0176Z" fill="white"/>
    <path d="M36.4285 4.87504C35.3916 4.78648 34.3575 5.07548 33.5152 5.68922C32.4961 6.54194 31.8476 7.75957 31.707 9.0842V19.0009C31.707 19.2802 31.8175 19.5482 32.0142 19.7457C32.2109 19.9432 32.4777 20.0542 32.7559 20.0542C33.034 20.0542 33.3008 19.9432 33.4975 19.7457C33.6942 19.5482 33.8047 19.2802 33.8047 19.0009V9.2317C33.8914 8.50986 34.2411 7.84579 34.7864 7.36754C35.3185 7.13327 35.8895 7.00073 36.47 6.97671C36.7437 6.96583 37.0033 6.85182 37.197 6.65739C37.3908 6.46297 37.5045 6.20239 37.5155 5.92754C37.514 5.78657 37.4847 5.64732 37.4292 5.51782C37.3738 5.38831 37.2933 5.27114 37.1924 5.17309C37.0916 5.07505 36.9723 4.99807 36.8416 4.94663C36.7109 4.89518 36.5713 4.87029 36.431 4.87339L36.4285 4.87504Z" fill="white"/>
    <path d="M50.5404 18.2333L44.9352 10.4409L48.8784 6.96668C49.0758 6.78987 49.1952 6.54153 49.2103 6.27632C49.2254 6.01111 49.1349 5.75077 48.9589 5.55252C48.7828 5.35427 48.5355 5.23438 48.2714 5.21922C48.0074 5.20406 47.7481 5.29486 47.5507 5.47167L41.7953 10.5108V1.01084C41.7953 0.742754 41.6893 0.485639 41.5005 0.296071C41.3117 0.106503 41.0557 0 40.7888 0C40.5218 0 40.2658 0.106503 40.077 0.296071C39.8883 0.485639 39.7822 0.742754 39.7822 1.01084V19.0175C39.7898 19.2807 39.8991 19.5305 40.0872 19.714C40.2752 19.8975 40.527 20.0002 40.7892 20.0002C41.0513 20.0002 41.3032 19.8975 41.4912 19.714C41.6793 19.5305 41.7886 19.2807 41.7961 19.0175V13.205L43.2491 11.9733L48.7215 19.5717C48.902 19.8017 49.1642 19.9524 49.4531 19.9922C49.7419 20.032 50.0349 19.9577 50.2703 19.785C50.5058 19.6122 50.6653 19.3545 50.7154 19.0661C50.7654 18.7776 50.7021 18.4809 50.5388 18.2383L50.5404 18.2333Z" fill="white"/>
    <path d="M68.5032 5.48581C68.4419 5.35207 68.3536 5.23256 68.2439 5.13488C68.1342 5.0372 68.0056 4.96346 67.866 4.91834C67.7265 4.87321 67.5791 4.85771 67.4333 4.87276C67.2875 4.88782 67.1463 4.93311 67.0188 5.00579C66.7472 5.15625 66.5462 5.40888 66.46 5.70813C66.3738 6.00738 66.4095 6.32878 66.5591 6.60164L71.1129 14.9716L66.4927 23.445C66.4203 23.5704 66.3746 23.7095 66.3583 23.8536C66.342 23.9976 66.3554 24.1435 66.3979 24.2821C66.4403 24.4206 66.5109 24.5489 66.605 24.6588C66.6992 24.7687 66.8149 24.8579 66.945 24.9208C67.216 25.0647 67.5325 25.0958 67.8262 25.0074C68.1199 24.919 68.3673 24.7182 68.5149 24.4483L73.6811 14.9733L68.5016 5.48497L68.5032 5.48581Z" fill="#87C05A"/>
    <path d="M77.7465 4.94836C77.4523 4.84107 77.1283 4.85181 76.8418 4.9783C76.5552 5.10479 76.3283 5.33731 76.2081 5.62753C76.2081 5.62753 73.2639 11.0134 73.0723 11.3692L74.3543 13.7292L78.3224 6.44754C78.3865 6.31167 78.4224 6.16412 78.428 6.01386C78.4336 5.8636 78.4087 5.71376 78.3549 5.57347C78.301 5.43317 78.2193 5.30535 78.1147 5.19774C78.0101 5.09014 77.8849 5.00584 77.7465 4.94836Z" fill="white"/>
</svg>
